<svg xmlns="http://www.w3.org/2000/svg" viewBox="0 0 157.7 61.62"><defs><style>.cls-1{fill:#1d1d1b;}</style></defs><title>yeet-logo</title><g id="Layer_2" data-name="Layer 2"><g id="Layer_1-2" data-name="Layer 1"><path class="cls-1" d="M27.86,61.62c-.72-.5-1.6-1.13-2.62-1.86l-3-2.16c-1-.7-1.81-1.33-2.48-1.89s-1-1-1.06-1.22-.07-.76-.18-1.91l-.39-4.08c-.15-1.56-.32-3.19-.5-4.86s-.36-3.11-.53-4.34q-4.2-4.57-8.69-9.46T0,20.27L0,20c0-.37.73-.59,2.29-.67s3.63-.29,6.21-.61a.74.74,0,0,1,.65.31c.19.23.34.42.45.58a15.23,15.23,0,0,1,1.47.88c.57.38,1.13.79,1.68,1.22l1.56,1.2,1.21.89a4.18,4.18,0,0,1,.93,1c.41.54.88,1.13,1.4,1.79s1,1.28,1.59,1.9a6.43,6.43,0,0,0,1.5,1.31c.2-.48.57-1.32,1.1-2.51s1.09-2.45,1.67-3.8,1.12-2.68,1.65-4a26.61,26.61,0,0,0,1.06-2.94c.42-.09.82-.16,1.18-.2l1.14-.13c.41,0,.89-.09,1.44-.14s1.26-.11,2.12-.21a3.92,3.92,0,0,1,1.88.71l1,.84L37.05,19a23.25,23.25,0,0,1,1.74,1.6c.51.53.75.86.71,1s-.15.47-.22.72a7.75,7.75,0,0,0-.21.86c-.15.51-.43,1.39-.84,2.65s-.9,2.68-1.46,4.23-1.13,3.17-1.72,4.85-1.13,3.23-1.62,4.65-.89,2.6-1.19,3.54a4.38,4.38,0,0,0-.36,1.53q.93,8,1.85,16c0,.36,0,.59-.26.7a1,1,0,0,1-.45.18c-.86,0-1.73,0-2.62,0S28.67,61.56,27.86,61.62Zm-2.42-7.35c.19,0,.28-.1.26-.27l-.12-1.62c0-.82-.12-1.78-.2-2.88s-.16-2.27-.26-3.52-.18-2.42-.26-3.49-.15-2-.22-2.74-.11-1.19-.13-1.32q.69-2,1.66-4.63t2.12-5.53q1.14-2.86,2.23-5.84t1.94-5.63v-.07s-.07,0-.23-.11a20,20,0,0,0-2.48.19c-.74.11-1.59.21-2.54.32-.4,1-.87,2.17-1.43,3.64s-1.17,3-1.82,4.53-1.31,3-2,4.41A19.54,19.54,0,0,1,20,33c-.13.14-.49-.08-1.08-.65S17.66,31,16.84,30s-1.7-2-2.66-3.16-1.83-2.22-2.63-3.23-1.48-1.88-2-2.59a5.83,5.83,0,0,1-.85-1.26.47.47,0,0,0-.32-.31A.91.91,0,0,0,8,19.37c-1.19.13-2.44.25-3.73.37a33.55,33.55,0,0,0-3.36.44c.22.31.69.87,1.4,1.71S3.87,23.7,4.9,24.82l3.37,3.69,3.6,3.94c1.19,1.29,2.32,2.5,3.39,3.6l2.65,2.75q.81,7.62,1.61,15.28c0,.22.1.33.25.35a4.9,4.9,0,0,0,.57,0Z"/><path class="cls-1" d="M52.69,61.18a3.48,3.48,0,0,1-1.33-.75q-.88-.7-1.83-1.59c-.63-.59-1.22-1.17-1.77-1.71s-.91-.91-1.07-1.09c-.13-.85-.31-2.45-.54-4.79s-.49-5-.77-8-.56-6.16-.85-9.44-.58-6.31-.83-9.07-.47-5.06-.64-6.91-.26-2.85-.27-3q14.34-1.74,28.69-3.63a14.25,14.25,0,0,0,1,1.15L74.19,14l1.67,1.74c.53.56.91,1,1.12,1.23s.17.85.28,1.55.21,1.47.3,2.27.16,1.59.2,2.33a16.08,16.08,0,0,1,0,1.62c-1.63.12-3.18.26-4.66.44l-4.41.52-4.4.54-4.65.59a1.62,1.62,0,0,0,0,.63c0,.32.06.68.09,1.07s.07.75.1,1.07,0,.53,0,.62q6.24-.69,12.46-1.43c.27.26.66.68,1.19,1.25l1.72,1.81c.6.64,1.2,1.25,1.78,1.82A9.15,9.15,0,0,0,78.52,35q.3,3.64.62,7.32-8.51.6-17,1.14c.1,1.21.21,2.42.32,3.62l11.4-.67c.42.35.94.85,1.57,1.48s1.28,1.31,1.94,2l1.95,2.17c.64.72,1.14,1.31,1.52,1.78q.25,3,.51,6s-.09.12-.27.22l-.41.24a14.93,14.93,0,0,0-2.16,0l-4.58.27L68,60.93q-3.22.18-6.24.27c-2,.06-3.82.1-5.45.12A25.93,25.93,0,0,1,52.69,61.18Zm-5.1-6.32a30.16,30.16,0,0,0,3.24,0c1.54,0,3.26-.1,5.17-.17s3.91-.18,6-.29l5.77-.32,4.4-.28a11.82,11.82,0,0,0,2-.2,5.22,5.22,0,0,0,0-1.21c0-.72-.1-1.47-.19-2.25s-.22-1.81-.38-3.09q-9.47.57-18.93,1.07-.51-5.62-1-11.22l3.3-.26c1.63-.12,3.4-.27,5.31-.44l5.48-.51,3.69-.34c0-.8,0-1.56,0-2.28s0-1.23,0-1.85a6.73,6.73,0,0,0-.13-1.41l-5.45.5q-3.15.28-6,.61c-1.91.21-4.22.44-7,.68q0-.13-.09-1c-.05-.57-.12-1.24-.22-2s-.18-1.59-.25-2.48-.17-1.71-.26-2.48-.17-1.41-.21-1.93-.08-.8-.08-.85l4.65-.61,4.41-.55,4.55-.58,3.72-.49,2-.27-.54-6.19-5.85.7q-3.63.4-7.53.89l-7.54.92q-3.62.43-5.84.76c.12,1.29.27,2.93.45,4.91s.37,4.13.56,6.46.39,4.77.63,7.35.47,5.1.72,7.56l.72,7.12Q47.22,52.29,47.59,54.86Z"/><path class="cls-1" d="M92.29,59.84A3.16,3.16,0,0,1,91,59.05c-.59-.5-1.2-1.06-1.83-1.7s-1.22-1.24-1.77-1.83-.91-1-1.07-1.16c-.13-.92-.31-2.65-.54-5.17s-.49-5.41-.77-8.65-.55-6.65-.85-10.19-.58-6.82-.83-9.8-.47-5.47-.64-7.46S82.4,10,82.39,9.81q14.34-1.94,28.69-4c.16.23.51.64,1,1.23s1.09,1.21,1.67,1.85l1.67,1.86c.53.6.91,1,1.12,1.32s.17.91.28,1.67.21,1.58.3,2.44.16,1.7.2,2.5,0,1.38,0,1.74c-1.63.14-3.18.31-4.66.5l-4.41.58c-1.46.19-2.93.39-4.4.61l-4.65.66a1.88,1.88,0,0,0,0,.68c0,.35.06.73.09,1.15s.07.81.1,1.16,0,.57,0,.67q6.24-.8,12.46-1.62c.27.28.66.72,1.19,1.33s1.11,1.26,1.71,1.95,1.21,1.33,1.79,1.94a8.86,8.86,0,0,0,1.48,1.33c.2,2.62.41,5.25.62,7.87q-8.51.71-17,1.37c.1,1.3.21,2.6.31,3.9l11.41-.83c.42.38.94.91,1.57,1.58s1.28,1.41,1.94,2.19,1.32,1.55,2,2.32,1.14,1.39,1.52,1.89l.51,6.44s-.09.14-.27.25l-.41.25a14.08,14.08,0,0,0-2.16.07l-4.58.33-5.94.43c-2.15.15-4.23.26-6.24.35s-3.83.15-5.45.19A22.44,22.44,0,0,1,92.29,59.84Zm-5.1-6.77a26.69,26.69,0,0,0,3.24,0C92,53,93.69,53,95.6,52.85s3.91-.23,6-.37l5.77-.4,4.4-.34a12.45,12.45,0,0,0,2-.23,6.12,6.12,0,0,0,0-1.31c0-.77-.1-1.57-.19-2.41s-.22-1.95-.38-3.33q-9.47.69-18.94,1.32-.5-6.06-1-12.11l3.3-.29c1.63-.15,3.4-.32,5.31-.52l5.48-.58,3.69-.39c0-.87,0-1.68,0-2.45s0-1.33,0-2a7.91,7.91,0,0,0-.13-1.52l-5.45.57q-3.15.33-6,.7t-7,.77c0-.1,0-.45-.09-1.07s-.12-1.33-.22-2.16S92,23,91.89,22.05s-.16-1.84-.25-2.67-.17-1.52-.21-2.08-.08-.87-.08-.92L96,15.7l4.41-.61,4.55-.65,3.72-.54,2-.3-.54-6.66-5.85.77-7.54,1-7.53,1q-3.62.48-5.84.84c.12,1.4.27,3.16.45,5.31s.37,4.46.55,7,.4,5.16.64,7.94.47,5.51.72,8.17l.72,7.68Q86.82,50.3,87.19,53.07Z"/><path class="cls-1" d="M142.61,57.9l-1.09-1.11-1.8-1.87L138,53.05A11.52,11.52,0,0,0,136.83,52q-1.05-8-1.94-16.39t-1.8-17.17c-.91.11-1.8.26-2.68.44s-1.75.33-2.61.43a3.81,3.81,0,0,1-1.11-.73l-2.12-1.67c-.77-.61-1.47-1.2-2.1-1.78s-.94-.93-1-1.09c0-.36-.09-.94-.18-1.73s-.16-1.66-.24-2.59S121,7.86,120.85,7s-.18-1.58-.27-2.14q7.58-1.32,15.19-2.39T151.41,0c.3.23.79.55,1.45,1a16,16,0,0,1,2,1.48,12.73,12.73,0,0,1,1.77,1.89,4,4,0,0,1,.89,2.19c.08,1,.1,2.22.08,3.52s0,2.75.14,4.34a.63.63,0,0,1-.31.63c-1.58.2-3.19.44-4.84.7l-5.05.81a10.53,10.53,0,0,0,0,2.78c.07,1.85.18,4.18.35,7s.33,5.89.51,9.23.36,6.51.54,9.53.34,5.67.48,7.95.25,3.73.29,4.33c-1.09.12-2,.2-2.75.24l-2.33.13C143.73,57.76,143.09,57.82,142.61,57.9Zm-5.19-7.59c1-.11,1.94-.21,2.94-.28a15.73,15.73,0,0,0,2.5-.33q-.24-5-.46-9.81t-.51-9.63c-.2-3.21-.42-6.49-.68-9.83s-.54-6.81-.87-10.43c.86-.17,1.68-.31,2.47-.42s1.62-.21,2.48-.3,1.81-.21,2.84-.35l3.47-.49a12.81,12.81,0,0,0,0-1.56c0-.76-.08-1.54-.14-2.32s-.11-1.49-.16-2.12-.08-1-.08-1.1a23,23,0,0,0-3.21.25c-1.66.19-3.57.45-5.75.78s-4.47.69-6.88,1.1-4.62.77-6.63,1.09l-5,.8a9.87,9.87,0,0,1-2,.24c0,.26.06.75.11,1.47s.12,1.5.19,2.32.12,1.58.17,2.25.09,1.08.1,1.23c.62-.08,1.47-.2,2.55-.37s2.17-.35,3.29-.55,2.17-.35,3.15-.46a13.15,13.15,0,0,1,2.2-.09Q135.5,30.72,137.42,50.31Z"/></g></g></svg>